<svg xmlns="http://www.w3.org/2000/svg" width="64" height="64" viewBox="0 0 64 64" fill="none">
  <defs>
    <linearGradient id="blueGradient" x1="0" y1="0" x2="64" y2="64" gradientUnits="userSpaceOnUse">
      <stop offset="0%" stop-color="#3B82F6" />
      <stop offset="100%" stop-color="#2563EB" />
    </linearGradient>
    <filter id="glow" x="-20%" y="-20%" width="140%" height="140%">
      <feGaussianBlur stdDeviation="2" result="coloredBlur"/>
      <feMerge>
        <feMergeNode in="coloredBlur"/>
        <feMergeNode in="SourceGraphic"/>
      </feMerge>
    </filter>
  </defs>
  
  <!-- Modern Hexagon Background -->
  <path d="M32 4L58 19V45L32 60L6 45V19L32 4Z" fill="url(#blueGradient)" />
  
  <!-- Circuit Lines (AI Theme) -->
  <path d="M32 4V14" stroke="white" stroke-width="2" stroke-opacity="0.3" />
  <path d="M6 19L16 25" stroke="white" stroke-width="2" stroke-opacity="0.3" />
  <path d="M58 45L48 39" stroke="white" stroke-width="2" stroke-opacity="0.3" />
  
  <!-- Stylized 'E' -->
  <path d="M20 20H30" stroke="white" stroke-width="3" stroke-linecap="round" />
  <path d="M20 32H28" stroke="white" stroke-width="3" stroke-linecap="round" />
  <path d="M20 44H30" stroke="white" stroke-width="3" stroke-linecap="round" />
  <path d="M20 20V44" stroke="white" stroke-width="3" stroke-linecap="round" />
  
  <!-- Stylized 'B' with Neural Nodes -->
  <path d="M34 20H40C44 20 46 22 46 25C46 28 44 30 40 30H34" stroke="white" stroke-width="3" stroke-linecap="round" stroke-linejoin="round" />
  <path d="M34 30H42C46 30 48 32 48 36C48 40 46 44 40 44H34" stroke="white" stroke-width="3" stroke-linecap="round" stroke-linejoin="round" />
  <path d="M34 20V44" stroke="white" stroke-width="3" stroke-linecap="round" />
  
  <!-- AI Nodes (Dots) -->
  <circle cx="46" cy="25" r="2" fill="white" filter="url(#glow)" />
  <circle cx="48" cy="36" r="2" fill="white" filter="url(#glow)" />
</svg>